<svg id="Layer_1" data-name="Layer 1" xmlns="http://www.w3.org/2000/svg" width="100" height="100" viewBox="0 0 100 100">
  <defs>
    <style>
      .cls-1 {
        fill: #48488c;
      }
    </style>
  </defs>
  <title>baseball</title>
  <path class="cls-1" d="M7.8,50.6L9,50.3l0.9,3.3c1.1-.3,2.2-0.7,3.3-1.1L12,49.3a6.12,6.12,0,0,0,1.2-.5L14.5,52a23,23,0,0,0,3.2-1.5l-1.5-3.1a10.91,10.91,0,0,0,1.1-.6l1.6,3,3-1.8L20,45.2c0.4-.2.7-0.5,1.1-0.7L23,47.3c0.9-.7,1.9-1.4,2.8-2.1l-2.1-2.6a7,7,0,0,1,1-.8l2.2,2.5c0.9-.8,1.7-1.6,2.5-2.4L27,39.5l0.9-.9,2.4,2.2c0.8-.9,1.5-1.8,2.2-2.7l-2.6-2c0.3-.3.5-0.7,0.8-1L33.3,37a29,29,0,0,0,1.9-2.9l-2.7-1.7a6.73,6.73,0,0,1,.7-1.1L36,32.9a30.13,30.13,0,0,0,1.6-3.1l-2.9-1.3a6.12,6.12,0,0,0,.5-1.2l2.9,1.2c0.4-1.1.8-2.2,1.2-3.2l-3-1c0.1-.4.3-0.8,0.4-1.2l3,0.9a33.83,33.83,0,0,0,.8-3.4l-3-.6a5.07,5.07,0,0,0,.2-1.3l3,0.5c0.2-1.1.3-2.3,0.4-3.4l-3-.3c0-.4.1-0.9,0.1-1.3V14.1l3,0.2a20.45,20.45,0,0,0,0-3.5h-3V9.5l3-.1-0.3-3A44.52,44.52,0,0,0,13.8,23.7a45.19,45.19,0,0,0-8.6,31A34,34,0,0,0,8.6,54Z"/>
  <path class="cls-1" d="M95,46.6l-3,.6,0.7,3-1.2.3-0.8-2.9c-1.1.3-2.2,0.7-3.3,1l1.1,2.9a6.12,6.12,0,0,0-1.2.5L86,49.1c-1.1.4-2.1,0.9-3.2,1.4l1.4,2.8a10.91,10.91,0,0,0-1.1.6l-1.5-2.7a23.81,23.81,0,0,0-3,1.8l1.7,2.6c-0.4.2-.7,0.5-1.1,0.7l-1.8-2.6c-0.9.7-1.9,1.4-2.8,2.1l2,2.4a7,7,0,0,1-1,.8l-2.1-2.4c-0.9.8-1.7,1.6-2.5,2.4l2.3,2.2-0.9.9L70.1,60a27.46,27.46,0,0,0-2.2,2.6l2.5,1.9c-0.3.3-.5,0.7-0.8,1L67,63.6a29,29,0,0,0-1.9,2.9l2.7,1.7a6.73,6.73,0,0,1-.7,1.1l-2.8-1.6a30.13,30.13,0,0,0-1.6,3.1l2.9,1.3a6.12,6.12,0,0,0-.5,1.2l-3-1.3a20.82,20.82,0,0,0-1.2,3.2l3.1,1c-0.1.4-.3,0.8-0.4,1.2l-3.1-.9c-0.3,1.1-.6,2.2-0.9,3.4l3.2,0.7a5.07,5.07,0,0,0-.2,1.3l-3.2-.6c-0.2,1.1-.4,2.3-0.5,3.4L62.2,85c0,0.4-.1.9-0.1,1.3v0.1l-3.3-.2c-0.1,1.2-.1,2.3-0.1,3.5l3.3-.1v1.3l-3.3.2c0.1,1.2.2,2.3,0.3,3.5A44.52,44.52,0,0,0,86.1,77.3,43.75,43.75,0,0,0,95,46.6Z"/>
  <path class="cls-1" d="M77,14.5A45.28,45.28,0,0,0,44.6,5.9c0.1,1.1.3,2.3,0.3,3.4l3.3-.2a8.6,8.6,0,0,0,.1,1.6l-3.3.1v3.7l3.3,0.2v0.1c0,0.5-.1,1.1-0.1,1.6l-3.3-.3c-0.1,1.2-.3,2.5-0.5,3.7l3.2,0.6c-0.1.5-.2,1.1-0.3,1.6L44,21.3a23.69,23.69,0,0,1-.9,3.6l3.1,0.9c-0.2.5-.3,1-0.5,1.5l-3-1a36.16,36.16,0,0,1-1.3,3.5L44.3,31a10.09,10.09,0,0,1-.7,1.5l-2.9-1.3c-0.5,1.1-1.1,2.3-1.7,3.4l2.7,1.5c-0.3.5-.5,0.9-0.8,1.4L38.4,36a21.12,21.12,0,0,1-2.1,3.1l2.5,1.8a11.32,11.32,0,0,1-1,1.3l-2.4-1.9c-0.8,1-1.6,2-2.4,2.9l2.3,2c-0.4.4-.7,0.8-1.1,1.2l-2.2-2c-0.9.9-1.8,1.8-2.7,2.6l2,2.2a10.59,10.59,0,0,1-1.2,1L28.2,48c-1,.8-2,1.6-3,2.3l1.7,2.4c-0.4.3-.9,0.6-1.3,0.9L24,51.1c-1,.7-2.1,1.3-3.2,2l1.4,2.6a9.14,9.14,0,0,1-1.4.7l-1.3-2.6c-1.1.6-2.3,1.1-3.4,1.6L17,58l-1.5.6-1-2.7-3.6,1.2,0.8,2.8c-0.5.1-1,.3-1.6,0.4L9.4,57.5c-1.3.3-2.5,0.6-3.8,0.8A45.07,45.07,0,0,0,55.5,95.5a25.61,25.61,0,0,1-.3-3.9l-3,.1a8.6,8.6,0,0,0-.1-1.6h3c0-1.3,0-2.5.1-3.8l-3-.2V86c0-.5.1-1.1,0.1-1.6l3,0.3c0.1-1.3.3-2.5,0.5-3.7l-3-.5c0.1-.5.2-1.1,0.3-1.6l3,0.6L57,75.9,54.1,75c0.2-.5.3-1,0.5-1.5l2.9,1c0.4-1.2.9-2.4,1.3-3.5l-2.9-1.2a10.09,10.09,0,0,1,.7-1.5l2.8,1.3c0.5-1.1,1.1-2.2,1.7-3.3l-2.7-1.5c0.3-.5.5-0.9,0.8-1.4L61.9,65c0.7-1.1,1.4-2.1,2.1-3.1L61.4,60a11.32,11.32,0,0,1,1-1.3l2.5,1.9c0.8-1,1.6-2,2.4-2.9L65,55.6c0.4-.4.7-0.8,1.1-1.2l2.3,2.2c0.9-.9,1.8-1.8,2.7-2.6L69,51.6a10.59,10.59,0,0,1,1.2-1l2,2.5c1-.8,2-1.5,3-2.3l-1.8-2.6c0.4-.3.9-0.6,1.3-0.9L76.4,50c1.1-.7,2.1-1.3,3.2-1.9l-1.5-2.8a9.14,9.14,0,0,1,1.4-.7l1.4,2.9A25.19,25.19,0,0,1,84.3,46l-1.2-3,1.5-.6,1.1,3.1c1.2-.4,2.4-0.8,3.6-1.1L88.7,41c0.5-.1,1-0.3,1.6-0.4l0.8,3.2c1.1-.3,2.3-0.5,3.4-0.7A45.16,45.16,0,0,0,77,14.5Z"/>
</svg>
