<?xml version="1.0" encoding="utf-8"?>
<!DOCTYPE svg PUBLIC "-//W3C//DTD SVG 1.1//EN" "http://www.w3.org/Graphics/SVG/1.1/DTD/svg11.dtd">
<svg xmlns="http://www.w3.org/2000/svg" xmlns:xlink="http://www.w3.org/1999/xlink" version="1.1" baseProfile="full" width="30" height="30" viewBox="0 0 250.00 250.00" enable-background="new 0 0 250.00 250.00" xml:space="preserve">
	<path fill="#FFFFFF" fill-opacity="1" fill-rule="evenodd" stroke-width="0.2" stroke-linejoin="round" d="M 216.109,158.31L 216.109,158.315L 174.255,158.315L 174.255,136.674L 170.369,136.674L 170.369,142.321L 141.703,170.987L 122.437,170.987L 122.437,210.133L 172.547,210.133L 172.547,189.065L 214.115,189.065L 214.115,227.873L 192,249.993L 100.708,249.993L 78.588,227.873L 78.588,170.821L 56.864,170.83L 33.8907,147.857L 33.8907,110.471L 76.0253,110.471L 76.0253,131.559L 78.588,131.581L 78.588,122.633L 97.9013,103.321L 60.1307,103.321L 33.8907,77.086L 33.8907,27.2167L 61.0987,0.00733948L 144.5,0.00733948L 170.735,26.242L 170.735,58.742L 125.969,58.7473L 125.969,42.4607L 77.3173,42.4607L 77.3173,63.294L 144.495,63.294L 170.369,89.1687L 170.369,98.226L 191.995,98.2367L 216.109,122.351L 216.109,158.31 Z M 129.068,98.7687L 129.093,137.826L 121.969,137.826L 121.907,166.43L 139.812,166.43L 165.812,140.435L 165.812,91.0541L 142.609,67.8515L 72.76,67.8515L 72.76,37.9035L 130.527,37.9035L 130.521,54.1901L 166.183,54.1848L 166.183,28.1328L 142.609,4.55946L 62.984,4.55946L 38.4427,29.1021L 38.4427,75.2008L 62.016,98.7687L 129.068,98.7687 Z M 71.4733,115.023L 38.4427,115.023L 38.4427,145.971L 58.7493,166.273L 78.396,166.269L 78.396,136.133L 71.4733,136.075L 71.4733,115.023 Z M 171.396,102.778L 171.407,132.122L 178.812,132.122L 178.812,153.758L 211.552,153.758L 211.552,124.237L 190.109,102.794L 171.396,102.778 Z M 124.167,103.351L 104.303,103.362L 83.1453,124.518L 83.1453,225.987L 102.593,245.435L 190.109,245.435L 209.563,225.987L 209.563,193.617L 177.099,193.617L 177.099,214.685L 117.88,214.685L 117.88,133.258L 124.145,133.258L 124.167,103.351 Z "/>
</svg>
