<?xml version="1.0" encoding="UTF-8" standalone="no"?>
<svg
   xmlns:dc="http://purl.org/dc/elements/1.1/"
   xmlns:cc="http://creativecommons.org/ns#"
   xmlns:rdf="http://www.w3.org/1999/02/22-rdf-syntax-ns#"
   xmlns:svg="http://www.w3.org/2000/svg"
   xmlns="http://www.w3.org/2000/svg"
   xmlns:sodipodi="http://sodipodi.sourceforge.net/DTD/sodipodi-0.dtd"
   xmlns:inkscape="http://www.inkscape.org/namespaces/inkscape"
   version="1.1"
   width="30"
   height="30"
   viewBox="0 0 250.00 250.00"
   enable-background="new 0 0 250.00 250.00"
   xml:space="preserve"
   id="svg835"
   sodipodi:docname="SCLogo.svg"
   inkscape:version="0.92.3 (2405546, 2018-03-11)"><metadata
   id="metadata841"><rdf:RDF><cc:Work
       rdf:about=""><dc:format>image/svg+xml</dc:format><dc:type
         rdf:resource="http://purl.org/dc/dcmitype/StillImage" /><dc:title></dc:title></cc:Work></rdf:RDF></metadata><defs
   id="defs839" /><sodipodi:namedview
   pagecolor="#ffffff"
   bordercolor="#666666"
   borderopacity="1"
   objecttolerance="10"
   gridtolerance="10"
   guidetolerance="10"
   inkscape:pageopacity="0"
   inkscape:pageshadow="2"
   inkscape:window-width="1920"
   inkscape:window-height="1058"
   id="namedview837"
   showgrid="false"
   inkscape:zoom="20.87602"
   inkscape:cx="19.258475"
   inkscape:cy="10.233051"
   inkscape:window-x="1912"
   inkscape:window-y="-8"
   inkscape:window-maximized="1"
   inkscape:current-layer="g862" />
	<g
   inkscape:groupmode="layer"
   id="layer1"
   inkscape:label="Base"
   style="display:none"><rect
     style="fill:#48488c;fill-opacity:1;stroke:#ffffff;stroke-width:0;stroke-miterlimit:4;stroke-dasharray:none;stroke-opacity:1"
     id="rect846"
     width="301.90677"
     height="272.24576"
     x="-22.245762"
     y="-8.474576" /></g>
<g
   style="display:inline"
   inkscape:label="Fill"
   id="g862"
   inkscape:groupmode="layer"><path
     inkscape:connector-curvature="0"
     id="path860"
     d="m 216.109,158.31 v 0.005 h -41.854 v -21.641 h -3.886 v 5.647 l -28.666,28.666 h -19.266 v 39.146 h 50.11 v -21.068 h 41.568 v 38.808 L 192,249.993 h -91.292 l -22.12,-22.12 V 170.821 L 56.864,170.83 33.8907,147.857 v -37.386 h 42.1346 v 21.088 l 2.5627,0.022 v -8.948 L 97.9013,103.321 H 60.1307 L 33.8907,77.086 V 27.2167 L 61.0987,0.00733948 H 144.5 L 170.735,26.242 v 32.5 l -44.766,0.0053 V 42.4607 H 77.3173 V 63.294 h 67.1777 l 25.874,25.8747 v 9.0573 l 21.626,0.0107 24.114,24.1143 z"
     style="fill:#48488c;fill-opacity:1;fill-rule:evenodd;stroke-width:0.83333333;stroke-linejoin:round;stroke:#ffffff;stroke-opacity:1;stroke-miterlimit:4;stroke-dasharray:none"
     sodipodi:nodetypes="cccccccccccccccccccccccccccccccccccccccccc" /></g><g
   inkscape:groupmode="layer"
   id="layer2"
   inkscape:label="Stroke"
   style="display:inline"
   sodipodi:insensitive="true"><path
     style="fill:#ffffff;fill-opacity:1;fill-rule:evenodd;stroke-width:0.2;stroke-linejoin:round"
     d="m 216.109,158.31 v 0.005 h -41.854 v -21.641 h -3.886 v 5.647 l -28.666,28.666 h -19.266 v 39.146 h 50.11 v -21.068 h 41.568 v 38.808 L 192,249.993 h -91.292 l -22.12,-22.12 V 170.821 L 56.864,170.83 33.8907,147.857 v -37.386 h 42.1346 v 21.088 l 2.5627,0.022 v -8.948 L 97.9013,103.321 H 60.1307 L 33.8907,77.086 V 27.2167 L 61.0987,0.00733948 H 144.5 L 170.735,26.242 v 32.5 l -44.766,0.0053 V 42.4607 H 77.3173 V 63.294 h 67.1777 l 25.874,25.8747 v 9.0573 l 21.626,0.0107 24.114,24.1143 z m -87.041,-59.5413 0.025,39.0573 h -7.124 l -0.062,28.604 h 17.905 l 26,-25.995 V 91.0541 L 142.609,67.8515 H 72.76 v -29.948 h 57.767 l -0.006,16.2866 35.662,-0.0053 V 28.1328 L 142.609,4.55946 H 62.984 L 38.4427,29.1021 V 75.2008 L 62.016,98.7687 Z M 71.4733,115.023 H 38.4427 v 30.948 l 20.3066,20.302 19.6467,-0.004 v -30.136 l -6.9227,-0.058 z m 99.9227,-12.245 0.011,29.344 h 7.405 v 21.636 h 32.74 v -29.521 l -21.443,-21.443 z m -47.229,0.573 -19.864,0.011 -21.1577,21.156 v 101.469 l 19.4477,19.448 h 87.516 l 19.454,-19.448 v -32.37 h -32.464 v 21.068 H 117.88 v -81.427 h 6.265 z"
     id="path833"
     inkscape:connector-curvature="0" /></g></svg>