<?xml version="1.0" encoding="UTF-8" standalone="no"?>
<svg
   xmlns:dc="http://purl.org/dc/elements/1.1/"
   xmlns:cc="http://creativecommons.org/ns#"
   xmlns:rdf="http://www.w3.org/1999/02/22-rdf-syntax-ns#"
   xmlns:svg="http://www.w3.org/2000/svg"
   xmlns="http://www.w3.org/2000/svg"
   xmlns:sodipodi="http://sodipodi.sourceforge.net/DTD/sodipodi-0.dtd"
   xmlns:inkscape="http://www.inkscape.org/namespaces/inkscape"
   version="1.0"
   width="453.000000pt"
   height="453.000000pt"
   viewBox="0 0 453.000000 453.000000"
   preserveAspectRatio="xMidYMid meet"
   id="svg60"
   sodipodi:docname="DSMRiverMonsters.svg"
   inkscape:version="0.92.3 (2405546, 2018-03-11)">
  <defs
     id="defs64" />
  <sodipodi:namedview
     pagecolor="#ffffff"
     bordercolor="#666666"
     borderopacity="1"
     objecttolerance="10"
     gridtolerance="10"
     guidetolerance="10"
     inkscape:pageopacity="0"
     inkscape:pageshadow="2"
     inkscape:window-width="1920"
     inkscape:window-height="1018"
     id="namedview62"
     showgrid="false"
     inkscape:zoom="2.0863426"
     inkscape:cx="378.77966"
     inkscape:cy="354.37567"
     inkscape:window-x="-8"
     inkscape:window-y="-8"
     inkscape:window-maximized="1"
     inkscape:current-layer="svg60" />
  <metadata
     id="metadata2">
Created by potrace 1.10, written by Peter Selinger 2001-2011
<rdf:RDF>
  <cc:Work
     rdf:about="">
    <dc:format>image/svg+xml</dc:format>
    <dc:type
       rdf:resource="http://purl.org/dc/dcmitype/StillImage" />
    <dc:title></dc:title>
  </cc:Work>
</rdf:RDF>
</metadata>
  <g
     transform="matrix(0.1,0,0,-0.1,0,453)"
     id="g58"
     style="fill:#000000;stroke:none">
    <path
       d="m 1730,3941 c 0,-5 -24,-11 -52,-15 -50,-6 -168,-56 -196,-83 -7,-7 -19,-13 -27,-13 -16,0 -132,-123 -147,-156 -6,-13 -15,-24 -19,-24 -4,0 -12,-12 -18,-27 -6,-16 -15,-36 -21,-45 -35,-62 -33,-56 -49,-113 -6,-22 -13,-70 -15,-108 -4,-71 -16,-97 -47,-97 -10,0 -20,-4 -24,-9 -3,-6 -26,-20 -50,-32 -71,-35 -235,-204 -235,-242 0,-8 -7,-20 -15,-27 -8,-7 -15,-18 -15,-26 0,-7 -6,-17 -12,-21 -14,-9 -34,-42 -68,-110 -11,-24 -25,-43 -30,-43 -6,0 -10,-8 -10,-18 0,-11 -9,-29 -20,-42 -26,-30 -26,-74 0,-100 17,-17 33,-20 100,-20 61,0 80,-3 80,-14 0,-15 -37,-67 -57,-79 -7,-4 -13,-17 -13,-28 0,-11 -6,-22 -14,-25 -8,-3 -18,-19 -21,-35 -4,-16 -11,-31 -16,-34 -5,-4 -9,-14 -9,-23 0,-9 -7,-30 -15,-46 -9,-17 -15,-55 -15,-95 0,-63 -2,-68 -29,-84 -17,-10 -50,-17 -79,-17 -35,0 -63,-8 -96,-26 -39,-22 -49,-24 -62,-13 -20,17 -223,25 -251,10 -11,-6 -31,-29 -43,-52 -19,-38 -21,-52 -15,-126 l 7,-83 H 88 c -35,0 -68,-39 -68,-80 0,-33 35,-91 72,-118 16,-11 17,-28 14,-145 -2,-89 -7,-139 -16,-154 -12,-18 -12,-26 0,-50 32,-62 50,-73 122,-73 53,0 70,4 80,18 23,32 45,33 78,5 29,-24 35,-25 93,-18 34,4 78,6 97,5 88,-7 116,-4 142,15 15,11 30,28 34,38 5,15 12,18 39,13 21,-4 47,-1 68,7 34,15 34,14 74,-27 22,-22 60,-51 86,-64 26,-13 49,-27 52,-31 2,-5 41,-19 85,-32 44,-12 80,-26 80,-31 0,-4 19,-8 43,-8 24,0 52,-7 63,-15 10,-8 33,-15 50,-15 20,0 39,-9 55,-26 21,-22 24,-37 27,-114 3,-61 8,-93 18,-101 8,-6 14,-19 14,-28 0,-17 50,-61 69,-61 6,0 14,-6 18,-13 10,-15 95,-57 116,-57 9,0 19,-4 22,-10 3,-5 15,-10 27,-10 11,0 34,-6 51,-14 18,-8 69,-16 115,-19 45,-3 88,-10 95,-15 7,-5 59,-12 117,-14 102,-5 105,-5 131,21 53,53 48,89 -25,165 -25,27 -46,53 -46,58 0,5 -11,26 -25,47 -48,77 -58,271 -19,374 26,68 87,192 96,195 4,2 8,8 8,14 0,6 14,27 30,48 18,22 30,50 30,67 v 29 h 68 c 51,1 76,6 105,23 20,13 37,26 37,31 0,4 42,7 93,6 84,-1 94,1 115,22 19,19 30,22 50,17 15,-5 63,-8 106,-9 l 80,-1 20,43 c 20,41 38,52 51,32 8,-13 121,-13 147,1 11,6 34,26 50,45 35,39 48,42 73,14 10,-11 22,-20 27,-20 5,0 16,-7 24,-15 26,-25 102,-19 146,11 21,15 38,31 38,35 0,5 18,9 41,9 22,0 66,7 97,16 55,16 56,16 70,-5 13,-18 24,-21 92,-21 68,0 82,3 107,24 28,24 62,22 78,-3 3,-6 30,-11 58,-11 66,0 117,28 117,65 0,24 1,25 59,19 80,-9 125,1 166,38 53,46 75,105 75,202 0,87 -12,122 -64,191 -32,42 -32,46 2,69 38,25 62,70 62,116 0,48 -39,125 -83,161 -24,20 -29,30 -21,40 6,8 21,42 34,77 12,34 27,65 31,68 5,3 9,18 9,33 0,16 7,34 15,41 9,7 15,23 13,34 -2,17 -13,23 -58,30 -85,13 -420,18 -449,7 -14,-6 -64,-13 -111,-16 -47,-4 -88,-9 -92,-11 -3,-2 -33,-6 -65,-9 -79,-6 -297,-43 -357,-61 -27,-8 -66,-14 -85,-14 -20,0 -54,-7 -76,-15 -22,-8 -59,-14 -82,-15 -23,0 -44,-4 -48,-9 -3,-6 -27,-13 -53,-17 -74,-10 -90,-24 -97,-91 -5,-52 -21,-101 -46,-143 -5,-8 -14,-26 -20,-40 -10,-25 -105,-120 -120,-120 -4,0 -11,9 -14,20 -5,15 3,31 29,60 43,48 86,115 86,134 0,7 6,19 14,25 7,6 16,42 20,84 4,39 13,90 21,112 19,53 19,136 0,171 -8,16 -15,40 -15,55 0,15 -13,39 -33,60 -57,59 -74,67 -122,61 -37,-4 -46,-2 -51,14 -3,11 -10,27 -15,36 -21.9533,53.863 -89.647,45.862 -96,0.2415 -1,-52 -18,-95.2415 -31,-100.2415 -7,-2 -30,13 -50,35 -20,21 -53,48 -73,60 -43,27 -57,55 -65,131 -5,50 -16,84 -63,182 -48,101 -156,222 -236,263 -22,12 -46,27 -53,34 -7,7 -22,13 -32,13 -10,0 -21,4 -24,9 -3,4 -33,11 -65,15 -33,4 -63,11 -66,16 -8,12 -65,13 -65,1 z m 127,-97 c 12,-7 23,-26 25,-41 4,-38 28,-42 28,-4 0,16 4,32 9,35 21,13 218,-146 264,-214 23,-33 22,-54 0,-45 -35,15 -159,38 -203,37 -89,-1 -240,-44 -240,-68 0,-18 91,-19 109,-1 8,8 47,12 121,12 74,0 113,-4 122,-12 6,-7 24,-13 39,-13 15,0 32,-7 39,-15 7,-8 18,-15 26,-15 26,0 74,-58 74,-89 0,-17 6,-42 12,-57 11,-23 10,-29 -4,-37 -13,-9 -14,-15 -5,-34 5,-13 14,-23 19,-23 4,0 8,-6 8,-14 0,-8 10,-16 23,-20 12,-3 37,-18 54,-33 17,-15 48,-43 68,-60 35,-32 39,-53 9,-53 -8,0 21.9481,-6.7844 21.9481,-0.7844 0,5 -44.9481,24.7844 -55.9481,30.7844 -16,9 -113.465,43.9481 -113.465,30.9481 0,-8 139.0079,-79.7066 147.0079,-79.7066 30,0 -12.5429,5.7585 -48.5429,-29.2415 -29,-30 -38,-34 -45,-22 -6,8 -10,23 -10,32 0,9 -5,20 -11,23 -6,4 -2,-21 0,0 3,30 -7,80 -24,80 -17,0 -20,-6 -18,-48 1,-27 9,-64 18,-84 21,-45 14,-99 -20,-153 -21,-33 -25,-52 -25,-111 0,-52 3,-70 13,-67 6,3 14,27 17,54 3,27 10,58 16,69 32,62 44,88 44,99 0,6 8,19 18,28 9,10 33,37 52,60 35,44 122,118 139,118 5,0 22,6 38,14 65,32 100,38 132,21 26,-13 60,-53 49,-58 -2,-1 -18,-10 -36,-19 -19,-10 -42,-18 -52,-18 -23,0 -160,-130 -160,-151 0,-9 -7,-19 -15,-23 -8,-3 -15,-12 -15,-20 0,-8 -3,-16 -8,-18 -8,-3 -66,-121 -76,-155 -4,-11 -13,-27 -21,-33 -8,-7 -15,-23 -15,-37 0,-31 -88,-151 -117,-159 -12,-3 -27,-12 -34,-20 -6,-8 -22,-14 -36,-14 -13,0 -38,-7 -55,-16 -33,-17 -59,-16 -210,8 -42,7 -83,19 -90,26 -6,6 -22,12 -34,12 -47,0 -234,161 -234,201 0,7 -8,21 -17,32 -17,18 -17,20 12,46 40,35 58,65 78,128 18,55 23,193 8,193 -12,0 -24,55 -23,99 2,60 103,183 160,198 15,3 36,12 48,20 43,28 282,25 303,-4 9,-12 71.6042,-38.6447 87,-43 57.1377,-16.1637 57.1377,-21.1637 57.1377,-16.1637 0,18 -129.1377,103.1637 -173.1377,116.1637 -56,16 -227,25 -243,12 -7,-5 -28,-12 -48,-16 -21,-4 -42,-13 -49,-21 -7,-8 -18,-15 -24,-15 -34,0 -146,-143 -146,-187 0,-21 -20,-15 -42,12 -15,20 -28,25 -63,25 -24,0 -46,4 -49,9 -8,12 -109,1 -125,-15 -12,-11 -5,-13 51,-11 39,1 76,-4 94,-12 16,-8 43,-21 60,-29 20,-10 39,-32 54,-64 20,-43 24,-65 23,-150 -1,-76 -5,-104 -17,-117 -9,-10 -16,-24 -16,-32 0,-16 -66,-77 -97,-89 -45,-18 -93,0 -149,57 -30,29 -54,60 -54,69 0,8 -6,25 -14,37 -8,12 -19,58 -26,102 -6,44 -13,87 -16,96 -3,9 3,25 13,34 10,11 16,29 14,47 -2,22 6,37 40,69 50,48 75,59 135,59 32,0 44,4 44,15 0,21 -36,55 -59,55 -25,0 -131,-49 -131,-61 0,-5 -9,-9 -20,-9 -18,0 -20,4 -15,38 8,54 35,152 51,190 8,18 14,37 14,43 0,29 168,218 175,197 2,-7 6,-32 7,-56 4,-52 22,-60 26,-12 2,19 9,42 17,50 7,8 15,24 16,34 7,32 72,77 125,85 65,9 154,2 181,-15 z m 776,-604 c 34,-40 17,-70 -39,-70 -28,0 -38.1896,43.1637 -16.1896,85.1637 18,35 17.8104,37 55.1896,-15.1637 z M 1100,3131 c 0,-4 -28,-37 -62,-73 -96,-98 -118,-125 -118,-142 0,-9 -4,-16 -9,-16 -16,0 -53,-72 -43,-82 9,-9 52,18 52,33 0,11 58,78 123,141 78,78 127,89 127,31 0,-25 12,-72 31,-118 4,-11 11,-34 14,-52 3,-17 13,-37 21,-44 8,-6 14,-21 14,-33 1,-30 82,-87 134,-93 54,-7 76,-19 76,-42 0,-10 7,-24 15,-31 8,-7 15,-16 15,-21 0,-13 132,-139 146,-139 6,0 17,-7 24,-15 7,-8 23,-15 36,-15 13,0 27,-6 31,-13 4,-6 35,-20 68,-31 33,-10 70,-22 83,-27 13,-5 65,-9 117,-9 108,0 119,-10 59,-52 l -36,-26 -44,19 c -72,32 -161,2 -189,-65 -15,-35 -41,-46 -107,-46 -25,0 -27,-2 -18,-19 14,-26 13,-64 -2,-79 -17,-17 -45,-15 -52,3 -3,10 -19,15 -46,15 -29,0 -40,4 -40,15 0,23 -46,30 -75,11 -33,-22 -45,-13 -45,30 0,37 -6,40 -45,22 -28,-13 -43,-5 -27,15 18,22 -1,39 -30,28 -14,-5 -29,-15 -33,-20 -9,-16 -45,-13 -45,3 0,8 5,18 10,21 25,16 8,27 -31,21 -35,-6 -41,-4 -46,14 -7,25 -42,27 -49,3 -3,-10 -10,-28 -16,-40 -13,-28 19,-67 47,-57 13,5 16,3 13,-7 -7,-22 -94,-30 -142,-14 -48,17 -122,20 -131,5 -4,-6 -11,-8 -16,-5 -5,4 -13,-5 -19,-19 -12,-32 -30,-33 -59,-2 -19,20 -21,28 -12,44 6,12 11,42 11,69 0,36 5,53 20,66 11,9 20,25 20,36 0,24 17,57 57,108 18,22 30,43 27,46 -4,3 28,40 70,82 42,42 76,80 76,85 0,6 6,10 14,10 7,0 19,7 27,16 7,8 30,24 51,35 21,11 36,24 33,29 -10,17 -37,11 -42,-8 -3,-14 -12,-17 -32,-14 -17,2 -32,-2 -40,-12 -8,-9 -18,-16 -24,-16 -5,0 -26,-12 -44,-26 -31,-24 -44,-26 -123,-28 -77,-1 -91,2 -103,18 -11,15 -11,25 -2,53 7,19 16,38 21,42 8,5 32,50 48,91 3,8 15,29 26,45 11,17 23,38 26,48 4,9 10,17 14,17 5,0 11,8 14,18 9,25 74,95 126,136 46,36 60,42 60,27 z m 2940,-259 c 0,-83 12,-119 30,-92 10,16 15,64 11,118 -3,46 13,62 65,62 37,0 44,-3 44,-19 0,-14 -8,-21 -27,-23 -35,-4 -43,-34 -14,-54 27,-19 27,-44 0,-51 -32,-9 -21,-47 14,-51 23,-3 28,-8 25,-25 -3,-21 -8,-22 -88,-21 -82,1 -84,2 -91,28 -8,28 -37,62 -45,53 -3,-3 0,-15 6,-27 17,-32 5,-50 -33,-50 -18,0 -38,-5 -45,-12 -21,-21 -30,3 -35,92 -3,47 -7,94 -9,105 -2,14 3,20 17,20 17,0 20,-7 22,-55 7,-145 33,-166 33,-26 0,56 4,98 11,101 17,11 48,-24 51,-59 4,-44 22,-38 26,9 7,99 32,81 32,-23 z m 273,77 c 35,-19 43,-35 28,-58 -8,-12 -12,-12 -25,-2 -15,12 -36,8 -36,-8 0,-5 13,-24 30,-42 48,-55 35,-129 -23,-129 -34,0 -67,28 -67,56 0,28 8,30 36,9 10,-8 22,-15 27,-15 13,0 7,30 -10,48 -27,26 -53,69 -53,86 0,13 54,66 66,66 3,0 15,-5 27,-11 z m -509,-53 c 23,-30 26,-44 26,-110 0,-69 -2,-77 -25,-92 -53,-35 -88,8 -98,121 -6,62 -4,72 15,92 30,32 51,29 82,-11 z m -154,-22 c 0,-14 5,-34 11,-46 15,-29 23,-154 10,-163 -6,-3 -16,5 -22,19 -13,28 -29,26 -29,-5 0,-26 -26,-24 -33,2 -7,25 -27,16 -27,-12 0,-10 -6,-19 -13,-19 -27,0 -46,36 -51,95 -3,33 -8,74 -12,92 -5,24 -2,33 13,41 27,15 55,-10 62,-55 9,-52 25,-48 29,7 4,62 8,70 37,70 20,0 25,-5 25,-26 z m -846,-17 c 8,-23 6,-31 -11,-49 -18,-18 -24,-19 -37,-8 -16,13 -22,71 -9,84 15,15 48,0 57,-27 z m 570,-23 c 18,-18 19,-23 6,-44 -7,-12 -12,-12 -22,-2 -16,16 -38,15 -38,-2 0,-7 20,-26 45,-42 48,-30 60,-51 51,-89 -10,-38 -41,-50 -88,-34 -31,10 -38,17 -36,33 3,18 9,20 43,17 40,-3 40,-3 21,18 -10,11 -27,23 -37,26 -10,3 -28,22 -39,41 -19,29 -20,37 -9,52 34,45 74,55 103,26 z m -144,-28 c 0,-17 -7,-26 -26,-30 -28,-7 -28,-26 2,-41 47,-24 47,-27 18,-51 -24,-18 -27,-25 -16,-36 7,-7 18,-13 25,-14 7,0 20,-2 30,-2 9,-1 17,-9 17,-17 0,-16 -70,-41 -92,-32 -9,3 -21,39 -31,89 -27,131 -27,131 13,145 51,17 60,16 60,-11 z m -147,-28 c 10,-8 22,-39 29,-78 6,-36 15,-69 19,-74 14,-16 -13,-54 -53,-72 -39,-18 -41,-18 -54,1 -8,10 -14,28 -14,40 0,12 -4,25 -9,31 -5,5 -12,39 -16,77 -6,64 -6,67 17,76 33,14 61,13 81,-1 z m 1220,-130 c 53,-27 90,-88 80,-129 -9,-33 -51,-71 -76,-67 -17,2 -21,11 -23,51 -4,58 -9,67 -39,67 -18,0 -25,-7 -30,-30 -13,-61 9,-107 99,-203 14,-15 26,-34 26,-42 0,-8 6,-18 14,-22 8,-4 21,-32 30,-62 19,-66 8,-115 -38,-174 l -30,-38 -70,3 c -69,3 -70,3 -97,43 -22,33 -28,54 -32,118 l -4,77 h 30 c 50,0 77,-34 77,-97 0,-52 1,-53 28,-53 24,0 30,6 40,36 15,50 -11,101 -97,194 -13,14 -27,34 -33,45 -5,11 -16,31 -24,45 -10,18 -14,47 -12,101 3,73 4,77 42,112 31,30 47,37 78,37 22,0 49,-5 61,-12 z m -286,-39 c 31,-21 42,-56 44,-141 2,-74 -15,-130 -43,-141 -9,-3 -2,-15 19,-33 l 32,-29 3,-170 2,-170 -37,1 c -66,2 -69,11 -66,164 4,155 -4,180 -52,180 h -31 l 4,-163 c 2,-137 0,-166 -13,-179 -21,-21 -55,-31 -80,-23 -17,6 -19,12 -14,33 4,15 7,168 7,341 -1,180 3,322 9,332 17,32 171,31 216,-2 z m -279,-12 c 6,-7 8,-27 3,-47 -6,-34 -9,-35 -59,-40 -31,-3 -57,-12 -62,-20 -6,-8 -10,-48 -10,-87 v -73 h 28 c 15,0 38,7 50,16 13,9 29,13 37,10 12,-4 12,-10 -1,-42 -18,-43 -48,-70 -86,-79 -16,-4 -28,-10 -29,-13 0,-4 -1,-47 -2,-97 l -2,-90 h 40 c 22,0 50,4 62,8 30,11 47,-21 35,-65 l -8,-33 -105,-12 c -57,-7 -110,-11 -118,-8 -11,4 -12,61 -10,316 2,171 6,314 9,318 13,19 60,34 129,41 42,4 79,8 82,9 4,0 11,-5 17,-12 z m -270,-68 c -3,-42 -7,-47 -60,-68 l -28,-11 v -263 c 0,-216 3,-267 15,-283 27,-36 19,-54 -24,-54 -32,0 -44,6 -65,31 l -26,31 v 265 265 l -37,-4 -38,-3 v 50 50 l 75,6 c 41,3 86,10 100,16 14,7 40,12 58,12 33,1 33,1 30,-40 z m -1078,-51 c 0,22 8,32 27,32 35.5189,-20.8984 -25.2038,-71.2971 -27,-32 z m 740,-14 c 44,-37 64,-90 49,-126 -13,-32 -63,-72 -82,-65 -7,2 -12,24 -12,60 0,70 -13,85 -50,61 -25,-16 -27,-22 -22,-67 3,-32 10,-53 21,-59 9,-5 16,-14 16,-19 0,-6 27,-40 60,-76 33,-36 60,-73 60,-82 0,-9 7,-25 15,-35 20,-27 20,-119 0,-136 -8,-7 -15,-18 -15,-25 0,-7 -18,-27 -39,-44 -49,-39 -96,-41 -151,-6 -41,26 -45,35 -54,125 -3,30 -9,67 -12,83 -6,25 -4,27 23,27 17,0 42,-9 56,-20 22,-17 27,-30 29,-78 3,-51 5,-57 27,-60 31,-5 41,12 41,69 0,38 -6,54 -35,90 -98,122 -116,150 -129,193 -12,39 -12,58 -3,104 10,47 18,60 51,84 53,38 112,39 156,2 z m -760,-20 c 0,-8 -43,-49 -61,-58 -8,-3 -32,-17 -54,-31 -42,-25 -71,-30 -94,-16 -13,8 -9,11 127,73 23,11 42,24 42,29 0,5 9,9 20,9 11,0 20,-3 20,-6 z m 254,-10 c 27,-13 35,-24 40,-53 5,-33 12,-65 48,-210 20,-79 74,-111 58,-34 -4,21 -10,92 -14,158 l -6,121 34,18 c 19,10 42,16 52,14 18,-3 19,-19 19,-313 0,-229 3,-316 12,-332 21,-36 6,-56 -39,-50 -47,6 -77,39 -78,87 0,19 -7,46 -15,60 -8,14 -14,41 -15,60 0,33 -28,121 -43,136 -16,16 -22,-50 -17,-181 3,-77 2,-150 -2,-161 -7,-22 -65,-39 -81,-24 -5,4 -8,149 -7,322 0,200 -3,325 -10,343 -8,20 -7,31 1,41 15,18 21,18 63,-2 z m -178,-100 c 11,-3 28,-18 37,-34 15,-24 17,-61 16,-272 -1,-273 -2,-280 -75,-330 -49,-35 -126,-38 -163,-8 l -23,20 v 271 272 l 43,38 c 24,21 52,40 64,42 32,7 78,7 101,1 z m -272,-374 c 2,-184 6,-352 11,-372 l 8,-38 h -34 c -38,1 -56,12 -80,50 -13,21 -14,44 -8,145 4,66 11,148 15,181 4,38 3,64 -4,68 -16,9 -46,-45 -52,-94 -4,-36 -9,-46 -26,-48 -20,-3 -23,3 -29,58 -6,49 -10,60 -24,58 -14,-3 -16,-24 -12,-200 l 3,-196 -26,-17 c -14,-9 -40,-18 -58,-19 -31,-1 -33,1 -29,29 2,17 5,171 8,342 3,301 4,313 24,323 11,6 32,10 46,8 23,-3 28,-11 44,-68 10,-36 18,-76 19,-90 0,-30 17,-50 42,-50 14,0 18,8 18,38 0,21 7,47 15,58 8,10 15,36 15,57 0,49 13,73 53,98 60,37 59,46 61,-321 z m -1222,76 c -1,-27 -9,-74 -17,-106 -8,-32 -15,-85 -15,-118 0,-34 -5,-73 -11,-89 -6,-15 -15,-71 -20,-123 -5,-52 -15,-126 -22,-164 -11,-59 -16,-70 -42,-83 -20,-11 -36,-13 -54,-7 -25,9 -26,14 -38,129 -7,66 -17,154 -23,195 -6,41 -17,125 -24,185 -7,61 -19,124 -26,141 -19,45 -8,64 38,64 59,0 68,-17 75,-145 6,-107 25,-285 34,-315 12,-40 21,29 28,210 4,107 11,206 17,220 13,34 48,61 78,58 23,-3 25,-6 22,-52 z m 296,16 c 5,-46 -9,-58 -83,-72 l -65,-12 v -79 c 0,-94 10,-104 70,-70 37,21 39,21 48,4 18,-34 -20,-89 -75,-108 l -38,-13 v -99 -98 l 25,3 c 14,2 45,4 70,5 44,2 45,1 48,-31 5,-47 -12,-62 -70,-62 -27,0 -57,-4 -66,-9 -24,-12 -87,-20 -98,-13 -5,4 -7,141 -4,332 l 5,325 45,6 c 25,4 56,12 70,18 14,5 45,9 70,8 43,-2 45,-3 48,-35 z m 96,23 c 4,-11 20,-15 55,-15 40,0 56,-5 77,-25 21,-20 34,-24 55,-20 33,7 44,-7 41,-55 -4,-51 -23,-99 -44,-106 -21,-6 -24,-34 -4,-34 33,0 44,-43 49,-195 3,-83 7,-161 9,-175 3,-23 0,-25 -41,-24 -33,1 -48,6 -63,25 -17,22 -18,36 -12,141 8,151 4,170 -39,166 l -32,-3 v -158 -157 l -30,-20 c -16,-11 -41,-20 -55,-20 h -25 l 3,332 c 1,183 5,339 7,346 6,17 42,15 49,-3 z m -743,-95 c 17,-23 19,-50 19,-340 v -332 c 0,-28 -56,-23 -85,7 l -25,24 v 289 c 0,159 -3,310 -6,336 l -7,47 43,-3 c 32,-2 48,-9 61,-28 z m -249,3 c 82,-31 88,-43 88,-160 0,-92 -2,-104 -20,-115 -25,-16 -26,-34 -2,-47 15,-8 18,-32 23,-168 4,-87 10,-170 14,-185 7,-25 5,-28 -19,-28 -15,0 -40,7 -56,15 l -30,16 v 146 c 0,122 -3,149 -17,165 -9,10 -22,18 -29,18 -28,0 -35,-41 -32,-181 3,-139 3,-140 -22,-159 -14,-11 -37,-20 -52,-20 h -26 l 5,178 6,179 -37,22 c -20,12 -36,24 -36,26 0,2 -3,11 -6,20 -6,14 -2,15 29,10 45,-9 46,-4 50,155 l 2,115 50,6 c 28,3 56,7 62,7 7,1 32,-5 55,-15 z m 1477,-613 c 65,-7 121,-7 183,1 99,12 125,4 96,-28 -9,-10 -19,-28 -22,-40 -9,-28 -36,-37 -89,-29 -33,4 -50,1 -79,-18 -21,-12 -35,-26 -31,-29 3,-4 39,-7 79,-7 40,0 75,-3 77,-7 5,-10 -16,-139 -24,-148 -5,-5 -80,4 -152,18 -7,1 -13,-8 -15,-20 -2,-17 2,-23 15,-23 10,0 28,-6 39,-14 11,-8 42,-16 69,-18 l 49,-3 14,-50 c 8,-27 16,-67 19,-87 l 5,-38 h -76 c -59,0 -76,-3 -76,-14 0,-8 13,-17 30,-21 16,-4 32,-11 35,-16 4,-5 35,-9 70,-9 60,0 65,-2 79,-28 8,-15 23,-36 35,-46 12,-11 21,-25 21,-33 0,-27 -225,-7 -366,33 -28,8 -62,14 -75,14 -14,0 -30,5 -37,12 -6,6 -35,22 -63,33 -37,16 -56,32 -69,56 -18,35 -50,153 -50,185 0,10 -7,25 -16,35 -21,23 -10,39 28,39 29,0 73,25 76,45 1,6 -47,10 -127,10 -103,1 -133,4 -154,18 -15,9 -39,17 -54,17 -15,1 -39,7 -53,15 -14,8 -37,14 -52,15 -53,0 -228,105 -228,135 0,22 23,23 52,2 23,-17 38,-19 115,-15 49,3 98,11 110,18 17,11 24,10 44,-3 36,-26 107,-22 151,8 39,27 63,31 73,15 3,-5 39,-10 79,-10 65,0 74,-2 79,-20 9,-35 27,-22 27,19 0,41 12,53 45,45 11,-2 62,-9 114,-14 z"
       id="path4"
       inkscape:connector-curvature="0"
       sodipodi:nodetypes="sccscsccccsccsssccsscssscssccscscsccccccssccccscccccccccsccsscscccsscscsccscscscccscscccscsccccccccsccssccsccssccsccsccccsccccccccssccccccsccsccccscccccccccccsscccsccsccccssscsssscccsscscsscssccsccscccscscsccsccccsscscccsccsccssscccsccccsscccssscsccccccccsccsscscccsssssccsccccccccsccscsssscscccccssssssccssccccscscsscsccccscccccccccccccscsccssscsccccsccccccccsccssccsscccccccccssccscscccscccscsscscssccsccccscccscsscccccsscccscscssccccccsccsscccsccscccscccccsccccccccsccsscccccccsssccccccsccccccccccsccscccccscccscscccccccscccccccccscccssscccccccccccccccsccscccsssccsccscscccsccccssccccsssccccccccscccscsccccccccccccccccccccccccccccccccccccccccsscscccsscsccccsccscscccccccscscccccccscccccccccsscccsccccccccccscccccssccscccccsccccsccscsccsccccsccccccccccccccsscccsscccccssccsccscssccscsccccscsccccccscscc" />
    <path
       d="m 1692,3807 c -35,-38 -22,-97 21,-97 50,0 64,60 24,98 l -23,22 z"
       id="path6"
       inkscape:connector-curvature="0" />
    <path
       d="m 1398,3619 c -10,-5 -18,-20 -18,-32 0,-12 -7,-35 -15,-51 -21,-40 -20,-145 1,-153 9,-3 24,-2 33,4 22,14 26,76 7,93 -23,18 -20,35 9,48 25,12 33,49 19,86 -7,18 -12,19 -36,5 z"
       id="path8"
       inkscape:connector-curvature="0" />
    <path
       d="m 1677,3523 c -15,-14 -6,-23 23,-23 20,0 30,5 30,15 0,15 -40,21 -53,8 z"
       id="path10"
       inkscape:connector-curvature="0" />
    <path
       d="m 1898,3332 c -69,-21 -141,-72 -172,-121 -32,-50 -50,-139 -36,-175 5,-15 10,-42 10,-60 0,-19 7,-39 15,-46 8,-7 15,-17 15,-22 0,-16 43,-68 57,-68 7,0 13,-7 13,-15 0,-20 -34,-19 -65,1 -13,9 -29,13 -35,9 -17,-10 7,-44 38,-51 36,-9 102,-44 102,-54 0,-4 -8,-11 -17,-14 -29,-11 5,-25 46,-19 81,11 142,25 154,36 7,7 28,20 48,30 42,22 136,111 144,138 4,11 10,19 15,19 5,0 12,17 16,38 4,20 11,43 17,50 9,11 8,30 -10,122 -3,19 -15,47 -26,62 -11,14 -17,33 -14,42 6,15 -39,56 -60,56 -5,0 -15,6 -21,13 -7,6 -39,17 -70,24 -31,6 -68,14 -82,17 -14,3 -50,-3 -82,-12 z m 216,-102 c 27,-20 52,-42 56,-50 4,-8 12,-25 18,-37 17,-33 15,-129 -4,-166 -21,-41 -54,-77 -71,-77 -8,0 -16,-6 -19,-14 -6,-16 -85,-36 -144,-36 -65,0 -90,13 -158,83 -45,47 -56,92 -39,172 10,49 20,67 59,106 55,55 65,58 173,55 74,-1 84,-4 129,-36 z"
       id="path12"
       inkscape:connector-curvature="0" />
    <path
       d="m 1853,3087 c -58,-39 -53,-119 9,-157 44,-27 80,-25 116,5 60,50 51,120 -20,156 -46,24 -64,23 -105,-4 z m 55,-41 c 5,-25 -9,-37 -36,-30 -24,7 -28,24 -10,42 17,17 42,11 46,-12 z"
       id="path14"
       inkscape:connector-curvature="0" />
    <path
       d="m 1374,3143 c -42,-21 -87,-103 -74,-135 6,-16 9,-18 9,-6 2,34 50,76 109,93 49,15 54,18 37,28 -11,5 -24,16 -28,24 -10,16 -14,16 -53,-4 z"
       id="path16"
       inkscape:connector-curvature="0" />
    <path
       d="m 1387,3032 c -24,-26 -22,-87 3,-112 11,-11 23,-20 26,-20 15,0 43,48 43,75 0,29 -28,75 -47,75 -5,0 -16,-8 -25,-18 z"
       id="path18"
       inkscape:connector-curvature="0" />
    <path
       d="m 1770,2705 c 0,-9 5,-15 11,-13 6,2 11,8 11,13 0,5 -5,11 -11,13 -6,2 -11,-4 -11,-13 z"
       id="path20"
       inkscape:connector-curvature="0" />
    <path
       d="m 930,2785 c 0,-8 5,-15 10,-15 6,0 10,7 10,15 0,8 -4,15 -10,15 -5,0 -10,-7 -10,-15 z"
       id="path22"
       inkscape:connector-curvature="0" />
    <path
       d="m 882,2723 c 2,-17 10,-29 21,-31 13,-3 17,3 17,27 0,25 -4,31 -21,31 -16,0 -20,-5 -17,-27 z"
       id="path24"
       inkscape:connector-curvature="0" />
    <path
       d="m 1184,2636 c -6,-25 10,-66 26,-66 19,0 33,41 21,66 -14,31 -39,31 -47,0 z"
       id="path26"
       inkscape:connector-curvature="0" />
    <path
       d="m 1080,2603 c 0,-5 5,-15 10,-23 8,-12 10,-11 10,8 0,12 -4,22 -10,22 -5,0 -10,-3 -10,-7 z"
       id="path28"
       inkscape:connector-curvature="0" />
    <path
       d="m 1122,2598 c -7,-7 -12,-20 -12,-30 0,-10 -5,-18 -10,-18 -6,0 -15,-12 -20,-26 -8,-21 -15,-25 -34,-20 -18,4 -29,-2 -52,-31 -44,-55 -94,-142 -94,-163 0,-10 -7,-25 -15,-34 -13,-12 -23,-96 -12,-96 2,0 18,7 35,16 28,14 52,58 52,98 0,5 10,19 23,31 12,12 30,30 39,41 10,10 31,33 48,49 17,17 36,50 44,74 15,54 36,66 36,22 0,-36 16,-49 37,-28 17,17 9,57 -12,57 -8,0 -15,13 -17,32 -3,35 -17,45 -36,26 z m -68,-124 c 22,-8 20,-31 -2,-43 -22,-12 -42,3 -42,31 0,18 16,23 44,12 z"
       id="path30"
       inkscape:connector-curvature="0" />
    <path
       d="m 1390,2520 c -15,-28 -6,-50 35,-90 27,-26 39,-32 51,-25 24,15 21,30 -6,33 -38,6 -50,21 -50,63 0,43 -13,51 -30,19 z"
       id="path32"
       inkscape:connector-curvature="0" />
    <path
       d="m 1313,2376 c -4,-8 -16,-15 -26,-17 -22,-5 -24,-23 -4,-27 14,-3 67,38 67,52 0,12 -29,6 -37,-8 z"
       id="path34"
       inkscape:connector-curvature="0" />
    <path
       d="m 1200,2315 c -7,-8 -19,-15 -26,-15 -8,0 -14,-7 -14,-15 0,-8 4,-15 9,-15 5,0 16,7 25,15 8,8 21,15 29,15 8,0 20,7 27,15 11,13 9,15 -13,15 -13,0 -30,-7 -37,-15 z"
       id="path36"
       inkscape:connector-curvature="0" />
    <path
       d="m 1635,2260 c -10,-16 16,-43 28,-31 11,11 2,41 -12,41 -5,0 -13,-5 -16,-10 z"
       id="path38"
       inkscape:connector-curvature="0" />
    <path
       d="m 3744,2865 c -12,-31 17,-125 38,-125 11,0 10,30 -3,90 -11,50 -24,64 -35,35 z"
       id="path40"
       inkscape:connector-curvature="0" />
    <path
       d="m 3035,2723 c 4,-10 10,-40 14,-66 3,-26 11,-49 16,-50 14,-3 18,88 5,113 -14,25 -45,28 -35,3 z"
       id="path42"
       inkscape:connector-curvature="0" />
    <path
       d="m 3902,2528 c -12,-12 -18,-169 -7,-180 4,-3 17,-1 30,6 43,20 58,101 30,156 -16,32 -33,38 -53,18 z"
       id="path44"
       inkscape:connector-curvature="0" />
    <path
       d="m 2342,2232 c -9,-7 -12,-59 -10,-228 l 3,-219 28,-3 c 20,-3 27,1 27,15 1,36 2,408 1,426 -1,18 -27,23 -49,9 z"
       id="path46"
       inkscape:connector-curvature="0" />
    <path
       d="m 1396,1989 c -3,-17 -6,-56 -6,-85 0,-46 3,-54 18,-54 34,0 52,32 52,91 0,57 -12,79 -41,79 -11,0 -19,-11 -23,-31 z"
       id="path48"
       inkscape:connector-curvature="0" />
    <path
       d="m 282,1883 c -10,-22 -9,-144 2,-161 23,-37 65,16 66,83 0,74 -45,126 -68,78 z"
       id="path50"
       inkscape:connector-curvature="0" />
    <path
       d="m 1581,1006 c -13,-15 -3,-56 14,-56 13,0 25,21 25,45 0,18 -27,26 -39,11 z"
       id="path52"
       inkscape:connector-curvature="0" />
    <path
       d="m 1583,914 c -7,-19 11,-39 26,-30 16,10 13,33 -4,40 -9,3 -18,-1 -22,-10 z"
       id="path54"
       inkscape:connector-curvature="0" />
    <path
       d="m 1613,855 c -7,-20 2,-29 21,-22 9,4 13,13 10,22 -8,19 -23,19 -31,0 z"
       id="path56"
       inkscape:connector-curvature="0" />
  </g>
  <path
     style="fill:#ab650d;fill-opacity:1;stroke:#ffffff;stroke-width:0.04793077;stroke-miterlimit:4;stroke-dasharray:none;stroke-opacity:1"
     d="m 231.31485,88.228339 c -7.16262,-0.09121 -14.59836,1.392469 -20.21985,6.096194 -2.80805,2.017846 -4.9143,4.87172 -5.78539,8.223117 -2.22689,3.52178 -3.45311,7.47783 -4.13497,11.56237 -0.56153,2.39068 -1.00567,-1.58538 -1.18142,-2.32071 -0.72554,-3.05345 -0.15153,-6.62237 -1.73374,-9.37459 -2.40662,-0.74311 -4.13658,2.23695 -5.89126,3.46165 -6.73834,6.8248 -13.66398,13.84885 -18.17897,22.39382 -3.65715,11.463 -8.24607,23.09561 -9.20702,35.27218 -0.21421,2.92509 3.54707,3.24323 5.30702,1.7328 5.06646,-3.99093 11.02822,-6.77805 17.2738,-8.28491 3.45292,0.0468 7.02465,3.09081 7.51727,6.47627 -0.96857,1.28439 -3.35263,0.63345 -4.81351,1.06471 -5.76273,0.0445 -11.75933,1.52943 -15.94284,5.76087 -3.73331,3.52855 -8.94283,7.30726 -8.40653,13.10782 0.39161,3.88945 -4.28032,6.14518 -3.31209,10.08044 1.43201,8.74186 2.17767,17.76799 5.38287,26.08953 1.72909,3.05454 1.7226,6.8371 4.43161,9.3558 5.00204,5.58699 10.51905,11.61604 17.9423,13.7717 4.71387,0.75986 9.42367,-0.88704 12.93663,-4.04322 3.82628,-3.1206 7.62871,-6.69491 9.14242,-11.53053 4.15346,-5.35181 2.88392,-12.50093 3.17496,-18.79317 0.0625,-6.88041 0.26059,-14.23264 -3.58406,-20.28258 -3.51327,-7.13786 -11.46204,-10.42349 -18.69019,-12.46387 -4.8722,-1.12784 -9.90728,-0.67806 -14.85573,-1.00261 4.63095,-2.32826 10.04572,-2.4034 15.14594,-1.7637 4.10818,1.97612 9.24021,0.26896 13.063,2.83839 2.38151,1.64119 4.4366,5.20673 7.6811,4.74066 1.71017,-1.15225 0.75819,-3.73808 2.03331,-5.30141 3.82367,-7.48833 9.00383,-14.67829 15.67954,-19.94463 3.74255,-1.36651 6.68534,-4.34551 10.59626,-5.36787 5.18727,-1.49932 10.26255,-4.00845 15.81794,-3.22719 10.6276,0.47206 22.08606,-0.21554 31.38861,5.92707 4.94926,2.6175 9.26023,6.19259 13.95198,9.17048 2.59272,0.75051 2.37313,-2.73532 1.5225,-4.18003 -2.21272,-5.08719 -1.19195,-11.34535 -5.26709,-15.61669 -2.09365,-2.73675 -4.96695,-4.96395 -8.28772,-5.86684 -2.83931,-2.04055 -6.02884,-3.45014 -9.53185,-3.81574 -3.25542,-1.35181 -6.56951,-2.66613 -10.18467,-2.66351 -8.29086,-0.31039 -16.82626,-0.95653 -24.94896,1.07674 -4.31511,1.98561 -9.5477,2.68763 -14.06562,0.997 -0.35441,-1.05328 1.99928,-1.54253 2.71521,-2.11849 10.08259,-4.37818 21.19778,-6.4866 32.19468,-6.04191 8.15248,0.95435 16.24495,2.6699 24.1601,4.82771 2.87369,-0.15791 1.74149,-4.01169 0.60288,-5.49986 -6.08569,-8.9113 -14.62379,-15.82231 -22.92344,-22.5848 -4.19939,-3.013407 -8.30641,-6.623871 -13.28863,-8.191062 -3.02561,0.692273 -2.14054,4.835892 -3.03406,7.086639 -0.39628,2.298103 -1.5086,-0.653976 -1.62609,-1.511879 -0.51016,-4.537196 -4.40753,-7.996219 -8.88684,-8.408479 -3.84032,-0.753767 -7.77284,-0.958166 -11.67939,-0.91368 z m -1.1215,7.656752 c 3.30117,2.699417 5.22399,8.175099 1.69911,11.467809 -3.00935,2.65492 -8.13645,0.46259 -7.99564,-3.64817 -0.40068,-3.739108 2.21624,-6.915782 4.85767,-9.23135 0.47962,0.470571 0.95924,0.941141 1.43886,1.411711 z M 189.3876,121.18823 c 2.09284,2.30535 2.22885,6.21108 1.18891,9.06753 -1.16949,2.9107 -5.82032,3.56226 -5.82939,6.94621 1.16705,3.02019 4.30773,5.47663 3.45064,9.09374 -0.25216,2.689 -1.41128,6.83944 -5.04209,5.82846 -2.2317,-0.15596 -1.73914,-3.32201 -2.13442,-4.90074 -0.45699,-5.72417 0.22273,-11.51197 2.59688,-16.80478 1.55291,-3.35158 0.25971,-8.36416 5.76947,-9.23042 z m 37.47775,12.97782 c 0.94855,-0.15354 3.87982,0.74157 2.25705,1.88914 -1.66804,0.19523 -4.1709,0.82339 -5.51391,-0.31361 0.30989,-1.266 2.1575,-1.62675 3.25686,-1.57553 z m -38.51968,49.80212 c 1.95647,0.96068 3.0343,3.33243 5.11043,4.31377 0.63978,1.11524 -2.79737,1.43556 -3.82042,2.05484 -6.1728,2.17272 -13.22097,5.33877 -15.54473,11.99206 -0.86467,-4.1364 1.98411,-7.98635 3.98799,-11.36296 2.43048,-3.38971 6.03345,-6.41635 10.26673,-6.99771 z m 0.0552,14.31744 c 3.30639,1.8296 5.35188,6.03303 5.26021,9.77713 -0.74379,3.0779 -1.9995,6.58694 -4.76874,8.32049 -5.07579,-2.46143 -6.39461,-9.11983 -4.54499,-14.03754 0.9458,-1.60833 2.23074,-3.43135 4.05352,-4.06008 z"
     id="path4576"
     inkscape:connector-curvature="0"
     transform="scale(0.75)" />
  <path
     style="fill:#5b8725;fill-opacity:1;stroke:#ffffff;stroke-width:0.04793077;stroke-miterlimit:4;stroke-dasharray:none;stroke-opacity:1"
     d="m 264.49006,151.82928 c -7.46986,0.13342 -15.2917,0.25079 -21.97139,4.06756 -4.70246,1.20424 -8.89592,3.99686 -12.29817,7.52663 -5.0639,5.21004 -10.03747,11.10062 -12.10626,18.1828 -0.30535,5.72993 -0.69628,12.27092 2.98912,17.06223 1.6318,6.73074 0.28781,13.79958 -0.64688,20.55125 -1.63293,8.48956 -5.83599,16.48904 -12.68227,21.93187 -1.81726,1.20406 -1.94107,3.45585 -0.42755,4.988 2.65246,3.34213 3.14343,7.88607 6.38079,10.85931 7.44207,7.8562 15.55063,15.5734 25.43943,20.23331 3.36141,1.04307 6.69616,2.09087 9.87768,3.62161 9.15831,2.77187 18.76622,3.8693 28.2623,4.81367 4.93521,0.35725 9.52847,-1.52489 14.05345,-3.15575 3.48309,-0.0959 6.74413,-1.331 9.30812,-3.67719 4.21203,-1.70097 7.60759,-4.78259 10.23522,-8.45522 4.0593,-5.06375 7.88607,-10.61921 9.17674,-17.08008 2.02142,-3.35688 4.31551,-6.58461 5.51085,-10.37788 2.78032,-6.42378 5.94775,-12.63774 9.54428,-18.5856 0.47481,-2.97483 4.06025,-4.00038 4.51878,-7.02205 4.13707,-6.40127 10.18398,-11.35649 15.93588,-16.26198 3.76546,-3.40783 9.06987,-3.7121 13.27078,-6.39564 1.6994,-0.82177 5.00853,-2.35691 3.14941,-4.66385 -3.23806,-5.02469 -9.43728,-8.63557 -15.47545,-6.73933 -5.51546,1.48108 -10.56939,4.1355 -15.88059,6.13332 -10.29523,6.4143 -18.12956,15.94496 -25.73867,25.20704 -1.81736,3.85717 -3.10345,8.00112 -5.21341,11.75989 -3.22764,5.71593 -3.36367,12.40941 -5.35944,18.50764 -0.55981,0.7941 -0.36095,-1.99056 -0.47375,-2.6875 0.0269,-4.6069 -0.33126,-9.35522 0.1609,-13.87152 3.36055,-6.70156 8.04731,-13.64421 6.68427,-21.5422 -1.08285,-5.08677 -3.33069,-9.91626 -3.61073,-15.16465 -0.002,-1.96729 -0.77443,-4.82535 0.98858,-6.15424 7.45137,1.21636 14.12266,4.92901 21.068,7.67829 2.65308,-0.0789 1.24853,-3.49356 -0.0206,-4.55343 -6.03382,-6.30695 -12.6054,-12.38396 -20.5138,-16.25339 -1.53023,-0.99694 -1.44805,-3.31776 -3.25312,-4.17335 -1.87309,-1.50507 -1.7803,-4.09394 -3.01346,-5.8659 -4.75185,-2.41871 -10.25882,-3.53029 -14.60671,-6.78052 -5.24068,-3.74802 -12.13711,-3.25505 -18.26702,-3.66898 -1.66501,-0.0279 -3.33033,-0.0188 -4.99532,0.006 z m -2.79346,7.23736 c 7.11981,0.56541 14.27765,2.07023 20.9463,4.65827 2.10515,1.31564 4.30903,2.39032 6.60359,3.29431 2.31688,1.89168 5.67986,3.89562 5.18532,7.33846 0.75943,4.19288 4.29189,7.18645 4.8661,11.52398 0.95971,5.35794 2.87569,10.90064 1.89195,16.36667 -2.26229,3.70936 -2.04979,8.52348 -4.5684,12.00797 -2.3425,2.40747 -3.50902,5.77959 -6.16181,7.996 -5.52,6.29271 -12.15085,11.4811 -19.5029,15.4656 -5.35155,3.84968 -12.31774,4.07846 -18.57108,5.35771 -3.1079,0.2604 -6.69325,1.19779 -9.61517,0.0571 1.40081,-0.94375 4.74683,-2.7959 2.43492,-4.62083 -4.64633,-3.77633 -10.73338,-5.15474 -15.87613,-7.79998 -1.23627,-0.70176 -3.18411,-2.68601 -2.0043,-4.02918 4.04828,0.56966 8.03447,4.71594 12.24294,2.62028 2.33188,-1.52979 0.50428,-4.49902 -1.67289,-4.99622 -3.61087,-2.39589 -5.74481,-6.29254 -7.45174,-10.1235 -3.994,-3.74406 -2.62303,-9.72471 -4.15088,-14.52621 -1.75108,-7.76795 0.46787,-15.85724 4.2239,-22.73809 6.77211,-10.05784 18.46098,-16.42679 30.39391,-17.82894 0.26193,-0.0109 0.52411,-0.0235 0.78637,-0.0234 z m -24.45499,83.42107 c 1.41739,0.16407 0.87813,1.69258 -0.13949,1.65791 -0.10909,-0.40347 -0.31836,-1.41687 0.13949,-1.65791 z"
     id="path4578"
     inkscape:connector-curvature="0"
     transform="scale(0.75)" />
  <path
     style="fill:#5b8725;fill-opacity:1;stroke:#ffffff;stroke-width:0.04793077;stroke-miterlimit:4;stroke-dasharray:none;stroke-opacity:1"
     d="m 368.22459,217.94097 c -3.74246,0.17281 -4.01443,4.94091 -3.46187,7.74288 0.22291,2.74677 1.80176,7.2 5.28081,6.48002 3.89394,-1.5212 6.61805,-6.3637 4.10314,-10.21618 -1.15879,-2.15033 -3.35344,-4.08155 -5.92208,-4.00672 z"
     id="path4580"
     inkscape:connector-curvature="0"
     transform="scale(0.75)" />
  <path
     style="fill:#5b8725;fill-opacity:1;stroke:#ffffff;stroke-width:0.04793077;stroke-miterlimit:4;stroke-dasharray:none;stroke-opacity:1"
     d="m 313.42906,276.72544 c -3.24795,-0.0146 -5.00982,3.44393 -7.97692,4.37649 -5.83845,3.35469 -12.52983,5.30592 -17.92442,9.37084 -1.64061,1.99344 1.45484,3.26098 3.08367,3.28026 5.61257,0.63771 10.34144,-3.42596 15.0812,-5.78449 3.82148,-2.63432 8.30155,-5.0419 10.74805,-9.11056 0.4906,-1.80752 -1.71491,-2.23343 -3.01158,-2.13254 z"
     id="path4582"
     inkscape:connector-curvature="0"
     transform="scale(0.75)" />
  <path
     style="fill:#5b8725;fill-opacity:1;stroke:#ffffff;stroke-width:0.04793077;stroke-miterlimit:4;stroke-dasharray:none;stroke-opacity:1"
     d="m 321.32078,268.72886 c -3.23831,0.12456 -4.45189,5.01411 -2.66802,7.22238 2.97745,1.75171 6.22114,-1.64897 5.72018,-4.705 0.31373,-1.86732 -1.45238,-2.70308 -3.05216,-2.51738 z"
     id="path4584"
     inkscape:connector-curvature="0"
     transform="scale(0.75)" />
  <path
     style="fill:#5b8725;fill-opacity:1;stroke:#ffffff;stroke-width:0.04793077;stroke-miterlimit:4;stroke-dasharray:none;stroke-opacity:1"
     d="m 405.87178,231.41495 c -3.09634,0.1974 -6.63517,1.18156 -8.67903,3.45345 -0.61088,7.52994 0.59166,15.12135 3.14546,22.19606 0.62795,3.15906 1.38866,7.77397 5.00839,8.72303 4.77487,-0.51366 9.33032,-3.47702 12.21111,-7.28698 2.33646,-3.62475 -0.76812,-7.70068 -1.17564,-11.45053 -1.51537,-4.98873 -1.48351,-11.51518 -6.23771,-14.72884 -1.28769,-0.73711 -2.80995,-0.93948 -4.27258,-0.90619 z m -0.003,8.14261 c 3.87975,0.96754 3.40447,5.94196 3.50119,9.02728 -0.13987,2.25664 0.0561,4.4197 -0.59913,6.61013 -1.32525,-5.1236 -2.81124,-10.35907 -3.21661,-15.59435 0.0971,-0.0467 0.20933,-0.0451 0.31455,-0.0431 z"
     id="path4586"
     inkscape:connector-curvature="0"
     transform="scale(0.75)" />
  <path
     style="fill:#5b8725;fill-opacity:1;stroke:#ffffff;stroke-width:0.04793077;stroke-miterlimit:4;stroke-dasharray:none;stroke-opacity:1"
     d="m 428.68757,226.0892 c -3.61185,0.88767 -8.14686,1.23463 -10.58315,4.38024 -1.24891,4.52261 0.7463,9.26944 1.3068,13.77887 1.3178,5.11387 1.72263,10.78381 4.63306,15.30069 2.97703,2.25677 7.04113,0.22162 10.1338,-0.79386 1.87546,-0.69343 5.51137,-2.70008 3.39728,-4.99996 -2.74916,-2.40341 -7.70754,-0.8089 -9.77338,-4.15556 1.50001,-2.53025 4.47719,-3.89717 5.89305,-6.41168 -1.80285,-3.30686 -6.29543,-3.88265 -8.34014,-6.88349 0.69868,-2.17504 4.21158,-1.61415 5.28829,-3.76612 1.73786,-1.94734 1.03428,-6.34191 -1.95561,-6.44913 z"
     id="path4588"
     inkscape:connector-curvature="0"
     transform="scale(0.75)" />
  <path
     style="fill:#5b8725;fill-opacity:1;stroke:#ffffff;stroke-width:0.04793077;stroke-miterlimit:4;stroke-dasharray:none;stroke-opacity:1"
     d="m 444.58991,223.26297 c -4.36701,0.52038 -8.08424,3.99847 -10.06827,7.74101 -0.11198,4.26565 3.34988,7.73616 6.18981,10.54758 2.3636,1.77869 5.11558,3.08671 7.01643,5.44557 -2.932,0.59863 -7.01202,-0.97378 -9.18548,1.6757 -1.5475,3.0628 1.49059,5.88475 4.34653,6.41168 4.28586,1.80897 10.53,1.70339 12.64361,-3.21941 1.64839,-3.69846 1.29378,-8.82006 -2.42462,-11.16357 -2.97806,-3.02623 -7.47335,-4.80765 -9.5899,-8.53673 2.22433,-2.07817 4.66708,3.18503 7.11941,1.00449 2.58742,-2.04038 2.27212,-6.09555 -0.50271,-7.81683 -1.50781,-1.34588 -3.49546,-2.23005 -5.54481,-2.08949 z"
     id="path4590"
     inkscape:connector-curvature="0"
     transform="scale(0.75)" />
  <path
     style="fill:#5b8725;fill-opacity:1;stroke:#ffffff;stroke-width:0.04793077;stroke-miterlimit:4;stroke-dasharray:none;stroke-opacity:1"
     d="m 483.16669,216.51241 c -2.63225,-0.18572 -4.94482,1.78351 -4.81648,4.49258 -0.70873,3.44027 -0.71841,6.96994 -1.78242,10.33132 -1.68366,-4.14071 -1.71409,-9.81874 -6.4304,-11.95554 -3.1109,-1.55025 -7.57128,1.30865 -6.41074,4.95784 1.14302,7.78371 1.07182,15.99947 4.1799,23.33816 1.06281,2.10295 4.23094,5.1892 6.50248,3.01346 1.62496,-1.34192 0.51405,-4.1021 2.19058,-5.18251 1.26998,1.89273 2.76387,5.60462 5.68804,3.90561 1.45883,-1.13018 0.82218,-3.90395 1.9397,-4.8558 1.82518,1.35301 2.62232,4.85349 5.21996,4.82958 2.33657,-1.42172 1.16269,-4.89979 1.46698,-7.16135 0.007,-6.62588 -1.16306,-13.14398 -3.04252,-19.4758 -0.3857,-2.39005 -0.61684,-6.0714 -3.81948,-6.19823 -0.29378,-0.0363 -0.58992,-0.0451 -0.8856,-0.0393 z"
     id="path4592"
     inkscape:connector-curvature="0"
     transform="scale(0.75)" />
  <path
     style="fill:#5b8725;fill-opacity:1;stroke:#ffffff;stroke-width:0.04793077;stroke-miterlimit:4;stroke-dasharray:none;stroke-opacity:1"
     d="m 501.02371,212.83897 c -4.23891,0.636 -8.06472,4.65825 -7.63522,9.12089 0.17666,7.64856 0.28056,16.02713 4.64329,22.63043 3.00869,4.23985 9.27135,2.28915 11.99205,-1.22916 2.00427,-3.69973 1.16375,-8.28086 1.46067,-12.34308 0.24561,-5.96601 -1.28793,-12.38494 -6.20413,-16.23564 -1.1729,-1.05208 -2.61625,-1.99913 -4.25666,-1.94344 z m -0.19659,8.049 c 2.2889,3.46778 2.47094,7.99535 3.22363,12.0225 0.13124,1.36643 0.45908,3.9912 -0.26072,4.60442 -2.91238,-4.01143 -4.35317,-9.25836 -3.99548,-14.22009 0.1969,-0.8329 0.41592,-1.77877 1.03257,-2.40683 z"
     id="path4594"
     inkscape:connector-curvature="0"
     transform="scale(0.75)" />
  <path
     style="fill:#5b8725;fill-opacity:1;stroke:#ffffff;stroke-width:0.04793077;stroke-miterlimit:4;stroke-dasharray:none;stroke-opacity:1"
     d="m 553.00425,208.73302 c -3.50569,-0.1006 -8.73714,0.45603 -9.27629,4.83895 -0.74587,6.42472 0.76166,13.34271 -1.82923,19.4466 -1.34531,1.61116 -1.44585,-1.61906 -1.71128,-2.39186 -1.24475,-6.88877 -0.12848,-14.15356 -2.19995,-20.89014 -0.93722,-1.97256 -3.32393,-0.50776 -3.29992,1.25725 -1.1329,3.46148 -0.55744,7.95678 -2.23458,10.83217 -1.22574,-4.30786 -2.19585,-10.48336 -7.36374,-11.65411 -2.87787,0.53761 -2.37126,4.46779 -2.77193,6.66631 -0.50989,6.33914 -0.26828,12.75432 -1.35086,19.0375 -2.20695,-6.94571 -0.86842,-14.57781 -3.25405,-21.4434 -1.26683,-2.57431 -5.73276,-1.31495 -5.15537,1.67196 0.38716,8.50994 0.75353,17.10433 2.28888,25.49599 0.32011,1.65145 1.75695,4.29238 3.65004,2.57815 3.73019,-3.08074 10.16839,-0.79449 12.84804,-5.42853 0.005,-2.16306 -1.95654,-4.91299 -1.82209,-6.79663 3.46435,2.3802 3.37012,7.58404 6.89286,9.7762 5.57336,1.48522 11.50852,0.60051 17.22699,0.80134 2.28128,0.14185 5.67594,-0.56609 5.39127,-3.52647 0.39381,-1.83646 -0.62334,-3.82081 -2.67738,-3.7914 -1.83116,-0.5208 -5.69319,-1.61721 -4.70601,-4.1125 1.57916,-1.81283 5.93695,-2.61763 4.79026,-5.91739 -0.89342,-2.88767 -5.34861,-4.60029 -4.42517,-7.94508 2.09272,-2.12413 6.3494,-0.9262 7.27481,-4.35309 0.94241,-2.22077 -1.08766,-4.39382 -3.37575,-4.06569 -0.96741,-0.0813 -1.93918,-0.0992 -2.90955,-0.0861 z"
     id="path4596"
     inkscape:connector-curvature="0"
     transform="scale(0.75)" />
  <path
     style="fill:#5b8725;fill-opacity:1;stroke:#ffffff;stroke-width:0.04793077;stroke-miterlimit:4;stroke-dasharray:none;stroke-opacity:1"
     d="m 571.33028,208.74988 c -3.71787,1.61164 -6.46496,5.06818 -9.02915,8.12482 -1.39288,2.6381 1.35391,5.35225 2.44514,7.61871 1.90846,3.55284 6.05155,6.21391 6.3481,10.46673 -2.76223,-0.28284 -4.91697,-4.15266 -7.97411,-3.4366 -2.85598,2.73325 -0.59491,7.52032 2.15689,9.51126 3.95365,3.80621 12.18622,2.86638 13.53014,-3.01158 1.68449,-6.13573 -2.14897,-11.84064 -6.06436,-16.17383 -0.91869,-0.87217 -2.00145,-3.03957 0.2462,-2.84682 2.05201,-0.30221 4.36257,2.74074 6.05126,0.38756 1.82225,-1.82358 2.18068,-4.93636 -0.10297,-6.56895 -2.08464,-1.92223 -4.6791,-3.88538 -7.60714,-4.0713 z"
     id="path4598"
     inkscape:connector-curvature="0"
     transform="scale(0.75)" />
  <path
     style="fill:#5b8725;fill-opacity:1;stroke:#ffffff;stroke-width:0.04793077;stroke-miterlimit:4;stroke-dasharray:none;stroke-opacity:1"
     d="m 145.42423,184.79947 c -8.12369,4.38546 -14.61291,11.32678 -20.74097,18.13215 -2.4953,2.74993 -3.94346,6.24523 -6.60109,8.83265 -4.45566,7.38358 -8.44536,15.10708 -12.26224,22.78703 -2.83819,4.2393 -6.028252,9.20373 -5.06586,14.53812 2.13014,4.75703 8.20844,4.22138 12.53968,4.26803 5.39349,-0.39945 11.22876,0.35522 16.24312,-2.01285 3.71916,-2.05595 7.16403,-4.58078 10.98195,-6.40747 2.14467,-2.00288 4.86692,-3.03575 7.82245,-2.55708 3.35771,1.14227 2.73049,-3.15612 5.08702,-4.06756 0.84731,-0.46571 3.34757,0.0385 1.6832,1.19358 -3.6426,2.98033 -7.99439,5.00409 -11.57266,8.10891 -2.0046,1.07003 -4.1236,1.98264 -5.31357,4.11063 -5.70418,7.03525 -12.78933,12.91218 -18.03021,20.31066 -3.53269,7.74692 -10.93679,13.7063 -12.0426,22.53121 -0.98831,2.86175 -4.27454,4.43841 -4.41581,7.74007 -0.73567,5.19755 -0.85936,10.50319 -2.33944,15.5672 -0.10868,3.54898 3.36416,5.97315 6.05969,7.6399 3.54132,1.31983 4.98058,-3.13375 6.63167,-5.28549 2.55344,-0.55906 4.92176,-2.1926 7.6942,-1.91349 7.29894,-0.4372 14.23562,3.35195 21.61998,2.60068 3.56119,-0.15149 8.55483,0.17078 10.46929,-3.50593 -0.395,-3.1184 -4.60493,-0.45008 -6.1533,-2.46114 -1.74519,-1.54579 -3.03763,-4.00021 -1.67477,-6.21883 1.05632,-2.00654 1.32427,-4.9863 3.26248,-6.29839 1.86987,-0.38262 3.89056,0.75013 4.04509,2.71389 1.92995,3.14601 6.26336,1.22648 9.21076,1.51 0.51775,0.0438 2.83454,-0.27179 1.65511,0.70492 -1.93659,1.40396 -3.32457,5.26553 -0.3548,6.33772 4.92973,1.62112 7.98563,-5.61069 12.89543,-3.70059 1.21969,1.83129 -2.52735,4.21607 -0.48773,6.06437 3.00324,1.36477 6.0763,-1.98998 9.03383,-1.41359 1.35062,2.98504 -0.16209,7.63522 3.17822,9.49161 3.23362,0.0708 5.74267,-2.91076 9.05348,-2.75509 2.12165,-0.41497 4.24608,0.6341 4.62645,2.7916 3.05366,3.85967 9.37958,0.12774 12.21673,4.42517 3.04494,3.47581 8.47129,0.0358 8.84472,-3.8925 1.04539,-3.05038 -1.09363,-6.33575 -1.26099,-9.01885 5.01826,-0.95958 11.37325,0.36573 14.93624,-4.18271 2.61833,-3.37296 4.11363,-7.80066 8.24559,-9.77526 5.7843,-3.74212 13.441,-3.3607 19.53836,-0.36537 2.11037,0.80734 4.60423,2.98774 6.44505,0.5002 2.6925,-2.45765 6.78175,-3.98575 8.31798,-7.47141 0.0208,-2.95882 -4.09888,-2.47069 -6.08871,-2.90206 -9.18157,-0.64178 -18.5294,0.30907 -27.32041,-2.99744 -5.91637,-2.01315 -12.1798,-3.58656 -17.26362,-7.35823 -2.72836,-0.81825 -5.93205,-0.85092 -7.92731,-3.24656 -7.39171,-4.10055 -13.25053,-10.36894 -19.09366,-16.36667 -2.40268,-3.01352 -4.98028,-6.11609 -6.34053,-9.74717 -0.47275,-4.66652 -5.91712,-5.40675 -9.59364,-6.10556 -6.83708,-1.52109 -14.25981,-4.64985 -17.90852,-10.97352 -0.73533,-3.40405 -2.98101,-6.09428 -4.4261,-9.178 -2.37877,-8.71177 -6.12466,-17.04687 -6.92843,-26.10261 -0.20206,-2.90819 -3.18728,-5.09219 -5.94548,-3.73803 -6.4691,2.64833 -11.13675,8.25831 -16.1802,12.89575 -5.07699,5.14798 -10.13074,10.49974 -13.71099,16.79511 -1.14139,1.06476 -2.73098,2.35325 -4.32032,2.12318 0.42628,-4.19713 3.22635,-7.74753 6.26844,-10.46239 1.07559,-2.16715 1.58009,-4.6361 3.4469,-6.28436 6.60237,-8.12936 14.71887,-14.99022 20.87984,-23.4636 0.8144,-1.23803 -0.0492,-2.74096 -1.56899,-2.48454 z m -20.13466,46.77182 c 0.40389,0.31757 0.5052,2.27149 -0.20689,2.00335 -0.31183,-0.60851 -0.0863,-1.50803 0.20689,-2.00335 z m -5.43528,6.51278 c 2.84068,0.1288 1.96567,4.21151 1.72251,6.01006 -2.94853,0.61436 -3.93526,-3.92377 -2.7401,-5.86309 0.3158,-0.14747 0.67496,-0.16535 1.01759,-0.14697 z m 40.83383,12.2317 c 2.99178,0.92217 4.13264,5.38281 2.57441,7.99938 -0.14894,1.56576 -2.63852,3.37072 -3.23626,0.99794 -1.41446,-2.27452 -2.68867,-7.90759 0.66185,-8.99732 z m -15.59435,6.53244 c 0.78076,0.61822 0.94275,3.35403 0.15728,1.2198 0.008,-0.16772 -0.60411,-1.17696 -0.15728,-1.2198 z m 6.84044,0.39225 c 2.75389,2.18308 0.81431,7.60831 4.7575,8.99918 3.35595,1.05267 2.20006,7.35523 -1.22729,7.02018 -2.21057,-2.17304 -0.59126,-6.1621 -2.7841,-8.27929 -2.5849,-0.4241 -3.41394,3.12195 -4.22859,4.9672 -2.95065,10.17938 -12.18233,16.45338 -18.52516,24.42344 -2.14137,1.87727 -3.0366,4.45784 -3.20844,7.23801 -1.08823,4.91915 -5.17724,9.60741 -10.00836,10.51669 -0.6285,-5.45366 1.59321,-10.56732 3.9131,-15.33691 1.57715,-6.63287 5.90636,-12.21644 9.48968,-17.8838 2.40464,-2.81531 4.18801,-7.23916 8.16045,-8.03907 2.21304,0.42217 4.94126,0.31422 5.9539,-2.12599 0.88876,-2.25627 2.68901,-3.82947 4.18083,-5.61689 0.50134,-2.19899 0.93013,-5.18342 3.52648,-5.88275 z m 35.8479,9.20888 c 1.43513,3.99458 -0.20961,9.86496 4.42985,12.08193 1.64666,1.23818 4.43484,0.57242 5.74795,2.09322 -0.18214,1.78158 -2.8785,3.24414 -4.13964,1.50907 -3.52335,-2.95524 -7.6997,-6.29277 -8.63129,-11.05777 0.34287,-1.66268 1.28163,-3.5419 2.59313,-4.62645 z m -8.64252,19.73026 c -2.26019,2.54268 -5.0259,5.99497 -8.70804,5.81628 -1.13661,-1.34272 1.85462,-1.68222 2.56785,-2.28607 2.52647,-0.83644 3.16323,-3.79712 6.14019,-3.53021 z m -13.40844,7.98252 c 1.40427,0.0886 -1.32286,1.98437 -2.15875,2.29544 -3.17069,-0.14888 -4.95962,3.41088 -7.82995,3.74178 -1.11801,-2.56723 2.98012,-2.17905 4.05352,-3.60229 1.5439,-1.69321 3.65385,-2.51826 5.93518,-2.43493 z m 54.29283,8.13794 c 1.40925,0.4848 2.37323,3.68749 0.67683,4.14151 -1.78237,-0.37842 -3.21021,-3.86783 -0.67683,-4.14151 z"
     id="path4600"
     inkscape:connector-curvature="0"
     transform="scale(0.75)" />
  <path
     style="fill:#5b8725;fill-opacity:1;stroke:#ffffff;stroke-width:0.04793077;stroke-miterlimit:4;stroke-dasharray:none;stroke-opacity:1"
     d="m 137.0532,272.63541 c -5.88822,0.41508 -2.45989,10.59547 2.67177,8.27648 2.67341,-0.65204 5.12625,-4.58238 2.39466,-6.61856 -1.44265,-1.04429 -3.28035,-1.67167 -5.06643,-1.65792 z"
     id="path4602"
     inkscape:connector-curvature="0"
     transform="scale(0.75)" />
  <path
     style="fill:#5b8725;fill-opacity:1;stroke:#ffffff;stroke-width:0.04793077;stroke-miterlimit:4;stroke-dasharray:none;stroke-opacity:1"
     d="m 226.00877,418.33464 c -3.88018,0.21733 -3.82995,5.11443 -4.20424,7.94508 -0.31886,0.96492 -0.10021,2.98374 -1.09997,3.33737 -1.07217,-1.68458 -1.41018,-4.58099 -4.03574,-4.52253 -5.84039,-1.00217 -11.94714,-0.16761 -17.68102,-1.62702 -3.03005,-2.74476 -7.15546,-0.66882 -10.03644,1.17393 -5.84914,3.3597 -13.31281,5.62689 -19.64162,2.13464 -2.15082,-1.23277 -4.7711,-2.58623 -7.13127,-1.01501 -8.28209,2.69649 -17.22741,2.83746 -25.74781,2.26548 -3.61353,-0.56403 -6.83924,-5.08256 -10.67115,-2.9938 -2.57703,2.46757 0.67272,5.74547 2.71885,7.24916 8.78857,6.79472 18.80754,12.54842 29.87774,14.44502 4.97418,1.80464 10.06438,3.19387 15.21642,4.37497 3.62436,1.35112 7.10015,3.46167 11.16067,3.10778 9.50618,0.73139 19.12936,0.26907 28.55708,1.45944 -2.6181,4.2222 -8.13508,4.56988 -12.55281,5.46148 -2.74906,0.57013 -2.63346,3.93542 -1.0307,5.6403 3.11034,4.28764 2.44343,9.99302 4.16477,14.83612 1.84622,5.95033 2.86314,12.61326 6.93046,17.54523 4.9007,4.58198 11.58941,6.44275 17.18579,9.98401 5.49063,1.64107 11.29496,1.99205 16.82166,3.61245 12.10971,2.76924 24.46846,5.07221 36.92247,5.18005 3.1455,-0.34122 6.81353,0.25953 9.59376,-1.46714 0.74852,-2.47377 -2.09295,-4.40884 -3.38511,-6.25628 -3.28298,-2.87307 -4.33371,-8.73639 -9.28846,-9.33994 -5.74077,-0.66102 -12.16408,0.49169 -17.25226,-2.72045 -1.79084,-0.97375 -4.76806,-0.98066 -5.75076,-2.91704 2.77521,-1.47455 6.34951,-0.76399 9.41177,-1.11011 3.43232,-0.28718 7.06818,0.29077 10.36716,-0.55623 0.11923,-5.97936 -1.83136,-11.96955 -3.14265,-17.82613 -1.03303,-2.06763 -0.45228,-5.85089 -2.96441,-6.51808 -5.95495,-0.22331 -12.01595,-0.91669 -17.32097,-3.83477 -1.35902,-0.99337 -4.8281,-0.005 -4.27071,-2.63713 0.18919,-1.25066 0.75901,-2.85185 2.37781,-2.11101 6.35274,0.80392 12.83045,2.70467 19.27435,1.91067 1.99848,-1.7424 1.52242,-5.08099 2.32446,-7.45735 0.57762,-4.30724 1.73884,-8.6635 1.45852,-13.01807 -1.66667,-1.77926 -4.80965,-0.72051 -7.03072,-1.26142 -4.34871,-0.37423 -9.50273,-0.10251 -13.38292,-1.00499 2.48099,-2.15301 5.4319,-4.30203 8.60301,-4.94657 4.91596,-0.32511 10.28579,1.15705 14.92612,-0.94742 2.88021,-2.39618 3.42218,-6.53093 5.93425,-9.29127 1.58484,-1.57899 0.86263,-4.49881 -1.51844,-4.6021 -8.58471,-0.75291 -17.15239,1.44221 -25.74406,0.99325 -9.70711,-0.14457 -19.37824,-1.30402 -28.94288,-2.67457 z m -12.48447,51.33647 c 2.82786,0.57162 1.55269,4.47977 0.10672,5.97637 -1.33676,2.19536 -2.58375,-0.92783 -2.6287,-2.28327 -0.44852,-1.81017 0.41701,-3.84557 2.52198,-3.6931 z m -0.36229,11.8844 c 1.53212,0.43847 3.1031,2.52404 1.03164,3.55455 -0.97997,1.52528 -2.55082,-0.86343 -2.61466,-1.85451 0.20128,-0.73548 0.78365,-1.56675 1.58302,-1.70004 z m 4.02731,7.38807 c 1.75392,0.883 1.80514,3.2916 -0.45497,3.37763 -2.12516,0.76953 -0.68894,-3.37661 0.45497,-3.37763 z"
     id="path4604"
     inkscape:connector-curvature="0"
     transform="scale(0.75)" />
</svg>
